<?xml version="1.0" standalone="no"?><!DOCTYPE svg PUBLIC "-//W3C//DTD SVG 1.1//EN" "http://www.w3.org/Graphics/SVG/1.1/DTD/svg11.dtd"><svg t="1536051434344" class="icon" style="" viewBox="0 0 1024 1024" version="1.1" xmlns="http://www.w3.org/2000/svg" p-id="4582" xmlns:xlink="http://www.w3.org/1999/xlink" width="88" height="88"><defs><style type="text/css"></style></defs><path d="M704 204.8c-49.066667 0-104.533333 6.4-153.6 51.2l-40.533333 42.666667-64 64c-10.666667 10.666667-10.666667 25.6 0 34.133333 10.666667 10.666667 25.6 10.666667 34.133333 0l68.266667-68.266667 36.266666-36.266666c38.4-32 83.2-38.4 121.6-38.4 81.066667 0 164.266667 66.133333 168.533334 147.2 2.133333 59.733333-25.6 104.533333-44.8 125.866666l-42.666667 42.666667s-19.2 21.333333-2.133333 38.4 36.266667-2.133333 36.266666-2.133333l42.666667-42.666667c25.6-27.733333 57.6-87.466667 57.6-160 0-110.933333-108.8-198.4-217.6-198.4z" p-id="4583" fill="#707070"></path><path d="M648.533333 710.4l-104.533333 106.666667c-12.8 12.8-21.333333 17.066667-32 17.066666-8.533333 0-19.2-4.266667-32-17.066666L194.133333 529.066667c-29.866667-36.266667-44.8-57.6-44.8-128-2.133333-81.066667 87.466667-147.2 168.533334-147.2 29.866667 0 81.066667 8.533333 106.666666 27.733333 10.666667 8.533333 25.6 4.266667 34.133334-6.4 8.533333-10.666667 4.266667-25.6-6.4-34.133333-34.133333-23.466667-93.866667-36.266667-134.4-36.266667-108.8 0-215.466667 87.466667-217.6 196.266667-2.133333 83.2 27.733333 123.733333 57.6 160l288 290.133333c21.333333 21.333333 44.8 32 66.133333 32s44.8-10.666667 66.133333-32l104.533334-106.666667c10.666667-10.666667 8.533333-25.6 0-36.266666-10.666667-6.4-25.6-6.4-34.133334 2.133333z" p-id="4584" fill="#707070"></path><path d="M731.733333 659.2m-29.866666 0a29.866667 29.866667 0 1 0 59.733333 0 29.866667 29.866667 0 1 0-59.733333 0Z" p-id="4585" fill="#707070"></path></svg>