<?xml version="1.0" standalone="no"?><!DOCTYPE svg PUBLIC "-//W3C//DTD SVG 1.1//EN" "http://www.w3.org/Graphics/SVG/1.1/DTD/svg11.dtd"><svg t="1536213455270" class="icon" style="" viewBox="0 0 1024 1024" version="1.1" xmlns="http://www.w3.org/2000/svg" p-id="4277" xmlns:xlink="http://www.w3.org/1999/xlink" width="88" height="88"><defs><style type="text/css"></style></defs><path d="M795.733333 588.8v-405.333333c0-38.4-29.866667-68.266667-68.266666-68.266667H140.8c-38.4 0-68.266667 32-68.266667 68.266667v588.8l168.533334-115.2h490.666666c36.266667-2.133333 64-32 64-68.266667z m-561.066666-149.333333c-21.333333 0-38.4-17.066667-38.4-38.4S213.333333 362.666667 234.666667 362.666667s38.4 17.066667 38.4 38.4-17.066667 38.4-38.4 38.4z m198.4 0c-21.333333 0-38.4-17.066667-38.4-38.4s17.066667-38.4 38.4-38.4 38.4 17.066667 38.4 38.4-17.066667 38.4-38.4 38.4z m200.533333 0c-21.333333 0-38.4-17.066667-38.4-38.4s17.066667-38.4 38.4-38.4 38.4 17.066667 38.4 38.4-17.066667 38.4-38.4 38.4z m264.533333-36.266667h-57.6v232.533333c0 36.266667-27.733333 64-64 64H347.733333v61.866667c0 29.866667 23.466667 53.333333 53.333334 55.466667h416l136.533333 91.733333V458.666667c0-29.866667-25.6-55.466667-55.466667-55.466667z" p-id="4278" fill="#EE5E7B"></path></svg>