<?xml version="1.0" standalone="no"?><!DOCTYPE svg PUBLIC "-//W3C//DTD SVG 1.1//EN" "http://www.w3.org/Graphics/SVG/1.1/DTD/svg11.dtd"><svg t="1536042176840" class="icon" style="" viewBox="0 0 1024 1024" version="1.1" xmlns="http://www.w3.org/2000/svg" p-id="3483" xmlns:xlink="http://www.w3.org/1999/xlink" width="88" height="88"><defs><style type="text/css"></style></defs><path d="M91.733333 913.066667m-40.533333 0a40.533333 40.533333 0 1 0 81.066667 0 40.533333 40.533333 0 1 0-81.066667 0Z" fill="#EE5E7B" p-id="3484"></path><path d="M91.733333 804.266667c12.8 0 21.333333-8.533333 21.333334-21.333334V480c0-12.8-8.533333-21.333333-21.333334-21.333333s-21.333333 8.533333-21.333333 21.333333v302.933333c0 10.666667 8.533333 21.333333 21.333333 21.333334zM881.066667 379.733333H659.2c2.133333-8.533333 4.266667-19.2 4.266667-27.733333 2.133333-14.933333 4.266667-27.733333 6.4-34.133333 23.466667-96 0-155.733333-25.6-187.733334-32-40.533333-76.8-57.6-106.666667-57.6-70.4 0-113.066667 42.666667-113.066667 110.933334-6.4 247.466667-185.6 264.533333-194.133333 264.533333-10.666667 0-19.2 10.666667-19.2 21.333333v458.666667c0 12.8 8.533333 21.333333 21.333333 21.333333H810.666667c59.733333 0 108.8-46.933333 117.333333-115.2l46.933333-334.933333v-2.133333c0-74.666667-34.133333-117.333333-93.866666-117.333334z m2.133333 450.133334c-4.266667 44.8-36.266667 76.8-74.666667 76.8h-341.333333-213.333333V488.533333c55.466667-12.8 206.933333-66.133333 213.333333-305.066666 2.133333-46.933333 23.466667-70.4 70.4-70.4 14.933333 0 49.066667 10.666667 74.666667 42.666666 27.733333 36.266667 34.133333 87.466667 19.2 151.466667-2.133333 8.533333-4.266667 23.466667-6.4 38.4-2.133333 17.066667-6.4 38.4-10.666667 51.2-2.133333 6.4 0 12.8 4.266667 19.2 4.266667 4.266667 10.666667 8.533333 17.066666 8.533333h247.466667c12.8 0 49.066667 0 51.2 72.533334l-51.2 332.8z" fill="#EE5E7B" p-id="3485"></path></svg>