<?xml version="1.0" standalone="no"?><!DOCTYPE svg PUBLIC "-//W3C//DTD SVG 1.1//EN" "http://www.w3.org/Graphics/SVG/1.1/DTD/svg11.dtd"><svg t="1536051634287" class="icon" style="" viewBox="0 0 1024 1024" version="1.1" xmlns="http://www.w3.org/2000/svg" p-id="5068" xmlns:xlink="http://www.w3.org/1999/xlink" width="88" height="88"><defs><style type="text/css"></style></defs><path d="M925.866667 520.533333l-121.6-138.666666c-8.533333-8.533333-21.333333-10.666667-29.866667-2.133334s-10.666667 21.333333-2.133333 29.866667l121.6 138.666667c19.2 21.333333 21.333333 34.133333 19.2 38.4 0 2.133333-6.4 4.266667-17.066667 4.266666h-89.6c-12.8 0-21.333333 8.533333-21.333333 21.333334v221.866666c0 25.6-21.333333 49.066667-49.066667 49.066667h-85.333333v-213.333333c0-42.666667-34.133333-76.8-76.8-76.8h-119.466667c-42.666667 0-76.8 34.133333-76.8 76.8l-2.133333 215.466666h-91.733334c-27.733333 0-49.066667-21.333333-49.066666-49.066666l-4.266667-219.733334c0-8.533333-6.4-17.066667-14.933333-19.2-2.133333-2.133333-6.4-2.133333-10.666667-2.133333H125.866667c-10.666667 0-14.933333-2.133333-14.933334-4.266667-2.133333-4.266667 0-19.2 19.2-40.533333L460.8 168.533333c27.733333-32 74.666667-34.133333 98.133333-6.4l61.866667 72.533334c8.533333 8.533333 21.333333 10.666667 29.866667 2.133333 8.533333-8.533333 10.666667-21.333333 2.133333-29.866667l-61.866667-72.533333a98.133333 98.133333 0 0 0-76.8-36.266667c-32 0-64 14.933333-87.466666 42.666667L100.266667 520.533333c-27.733333 32-36.266667 61.866667-25.6 85.333334 4.266667 10.666667 19.2 27.733333 53.333333 27.733333h61.866667l2.133333 200.533333c0 49.066667 42.666667 89.6 91.733333 89.6h110.933334c12.8 0 21.333333-8.533333 21.333333-21.333333v-4.266667l2.133333-232.533333c0-19.2 14.933333-34.133333 34.133334-34.133333h119.466666c19.2 0 34.133333 14.933333 34.133334 34.133333v234.666667c0 12.8 8.533333 21.333333 21.333333 21.333333h104.533333c51.2 0 91.733333-40.533333 91.733334-91.733333v-200.533334H896c36.266667 0 51.2-19.2 55.466667-29.866666 10.666667-19.2 0-49.066667-25.6-78.933334z" fill="#707070" p-id="5069"></path><path d="M716.8 300.8m-32 0a32 32 0 1 0 64 0 32 32 0 1 0-64 0Z" fill="#707070" p-id="5070"></path></svg>