<?xml version="1.0" standalone="no"?><!DOCTYPE svg PUBLIC "-//W3C//DTD SVG 1.1//EN" "http://www.w3.org/Graphics/SVG/1.1/DTD/svg11.dtd"><svg t="1536213397513" class="icon" style="" viewBox="0 0 1024 1024" version="1.1" xmlns="http://www.w3.org/2000/svg" p-id="4014" xmlns:xlink="http://www.w3.org/1999/xlink" width="88" height="88"><defs><style type="text/css"></style></defs><path d="M810.666667 106.666667H582.4c-29.866667 0-55.466667 14.933333-72.533333 36.266666-19.2-21.333333-44.8-36.266667-76.8-36.266666H215.466667C155.733333 106.666667 106.666667 155.733333 106.666667 215.466667v593.066666c0 59.733333 49.066667 108.8 108.8 108.8h593.066666c59.733333 0 108.8-49.066667 108.8-108.8V215.466667C917.333333 155.733333 870.4 106.666667 810.666667 106.666667zM533.333333 640c0 10.666667-10.666667 21.333333-21.333333 21.333333-12.8 0-21.333333-8.533333-21.333333-21.333333V256c0-10.666667 8.533333-21.333333 21.333333-21.333333 10.666667 0 21.333333 8.533333 21.333333 21.333333v384z" p-id="4015" fill="#EE5E7B"></path></svg>