<?xml version="1.0" standalone="no"?><!DOCTYPE svg PUBLIC "-//W3C//DTD SVG 1.1//EN" "http://www.w3.org/Graphics/SVG/1.1/DTD/svg11.dtd"><svg t="1536213615149" class="icon" style="" viewBox="0 0 1024 1024" version="1.1" xmlns="http://www.w3.org/2000/svg" p-id="4839" xmlns:xlink="http://www.w3.org/1999/xlink" width="88" height="88"><defs><style type="text/css"></style></defs><path d="M516.266667 51.2c-202.666667 0-369.066667 164.266667-369.066667 369.066667 0 202.666667 164.266667 369.066667 369.066667 369.066666s369.066667-164.266667 369.066666-369.066666c0-204.8-164.266667-369.066667-369.066666-369.066667z m0 544c-98.133333 0-177.066667-78.933333-177.066667-177.066667 0-98.133333 78.933333-177.066667 177.066667-177.066666s177.066667 78.933333 177.066666 177.066666c0 98.133333-78.933333 177.066667-177.066666 177.066667z m-179.2 369.066667c-6.4 8.533333-17.066667 8.533333-21.333334 0l-70.4-115.2c-6.4-6.4-10.666667-10.666667-19.2-14.933334l-132.266666-19.2c-10.666667-2.133333-14.933333-12.8-8.533334-21.333333L172.8 661.333333c61.866667 81.066667 151.466667 142.933333 253.866667 170.666667l-89.6 132.266667zM789.333333 832c-8.533333 0-14.933333 6.4-19.2 14.933333l-70.4 117.333334c-4.266667 8.533333-17.066667 8.533333-23.466666 0l-85.333334-132.266667c104.533333-25.6 194.133333-85.333333 258.133334-166.4l83.2 128c6.4 8.533333 0 19.2-8.533334 21.333333L789.333333 832z" fill="#EE5E7B" p-id="4840"></path></svg>