<?xml version="1.0" standalone="no"?><!DOCTYPE svg PUBLIC "-//W3C//DTD SVG 1.1//EN" "http://www.w3.org/Graphics/SVG/1.1/DTD/svg11.dtd"><svg t="1536213544119" class="icon" style="" viewBox="0 0 1024 1024" version="1.1" xmlns="http://www.w3.org/2000/svg" p-id="4576" xmlns:xlink="http://www.w3.org/1999/xlink" width="88" height="88"><defs><style type="text/css"></style></defs><path d="M665.6 661.333333c-12.8 0-23.466667-4.266667-34.133333-12.8-10.666667-8.533333-17.066667-21.333333-17.066667-34.133333s4.266667-27.733333 12.8-36.266667l224-260.266666V170.666667c0-36.266667-27.733333-64-64-64h-554.666667c-36.266667 0-64 27.733333-64 64v682.666666c0 36.266667 27.733333 64 64 64h554.666667c36.266667 0 64-27.733333 64-64V473.6l-147.2 170.666667c-10.666667 10.666667-23.466667 17.066667-38.4 17.066666zM277.333333 268.8h426.666667c12.8 0 21.333333 8.533333 21.333333 21.333333s-8.533333 21.333333-21.333333 21.333334H277.333333c-12.8 0-21.333333-8.533333-21.333333-21.333334s10.666667-21.333333 21.333333-21.333333z m170.666667 443.733333h-170.666667c-12.8 0-21.333333-8.533333-21.333333-21.333333s8.533333-21.333333 21.333333-21.333333h170.666667c12.8 0 21.333333 8.533333 21.333333 21.333333s-8.533333 21.333333-21.333333 21.333333zM277.333333 512c-12.8 0-21.333333-8.533333-21.333333-21.333333s8.533333-21.333333 21.333333-21.333334h256c12.8 0 21.333333 8.533333 21.333334 21.333334s-8.533333 21.333333-21.333334 21.333333H277.333333z m292.266667 232.533333c-17.066667 0-32-14.933333-32-32s14.933333-32 32-32 32 14.933333 32 32-14.933333 32-32 32z m364.8-448c-8.533333-8.533333-21.333333-6.4-29.866667 2.133334l-256 298.666666c-8.533333 8.533333-6.4 21.333333 2.133334 29.866667 4.266667 4.266667 8.533333 4.266667 14.933333 4.266667 6.4 0 12.8-2.133333 17.066667-6.4l256-298.666667c6.4-10.666667 4.266667-23.466667-4.266667-29.866667z" p-id="4577" fill="#EE5E7B"></path></svg>