<?xml version="1.0" standalone="no"?><!DOCTYPE svg PUBLIC "-//W3C//DTD SVG 1.1//EN" "http://www.w3.org/Graphics/SVG/1.1/DTD/svg11.dtd"><svg t="1536051671968" class="icon" style="" viewBox="0 0 1024 1024" version="1.1" xmlns="http://www.w3.org/2000/svg" p-id="5368" xmlns:xlink="http://www.w3.org/1999/xlink" width="88" height="88"><defs><style type="text/css"></style></defs><path d="M814.933333 900.266667H177.066667c-46.933333 0-85.333333-38.4-85.333334-85.333334v-597.333333c0-46.933333 38.4-85.333333 85.333334-85.333333h458.666666c12.8 0 21.333333 8.533333 21.333334 21.333333s-8.533333 21.333333-21.333334 21.333333H177.066667c-23.466667 0-42.666667 19.2-42.666667 42.666667v597.333333c0 23.466667 19.2 42.666667 42.666667 42.666667h637.866666c23.466667 0 42.666667-19.2 42.666667-42.666667v-204.8c0-12.8 8.533333-21.333333 21.333333-21.333333s21.333333 8.533333 21.333334 21.333333v204.8c0 46.933333-38.4 85.333333-85.333334 85.333334zM953.6 339.2c-6.4 0-12.8-2.133333-17.066667-6.4l-151.466666-172.8c-8.533333-8.533333-6.4-21.333333 2.133333-29.866667 8.533333-8.533333 21.333333-6.4 29.866667 2.133334l151.466666 172.8c8.533333 8.533333 6.4 21.333333-2.133333 29.866666-4.266667 2.133333-8.533333 4.266667-12.8 4.266667z" fill="#707070" p-id="5369"></path><path d="M802.133333 512c-4.266667 0-10.666667-2.133333-14.933333-4.266667-8.533333-8.533333-10.666667-21.333333-2.133333-29.866666l151.466666-172.8c8.533333-8.533333 21.333333-10.666667 29.866667-2.133334 8.533333 8.533333 10.666667 21.333333 2.133333 29.866667l-151.466666 172.8c-2.133333 4.266667-8.533333 6.4-14.933334 6.4z" fill="#707070" p-id="5370"></path><path d="M514.133333 552.533333c-2.133333 0-6.4 0-8.533333-2.133333-10.666667-4.266667-14.933333-17.066667-10.666667-27.733333C554.666667 377.6 697.6 283.733333 853.333333 283.733333c29.866667 0 59.733333 4.266667 87.466667 10.666667 10.666667 2.133333 19.2 14.933333 17.066667 25.6-2.133333 10.666667-14.933333 19.2-25.6 17.066667-25.6-6.4-51.2-8.533333-78.933334-8.533334-140.8 0-266.666667 83.2-322.133333 211.2-2.133333 6.4-10.666667 12.8-17.066667 12.8z" fill="#707070" p-id="5371"></path><path d="M484.266667 650.666667m-32 0a32 32 0 1 0 64 0 32 32 0 1 0-64 0Z" fill="#707070" p-id="5372"></path></svg>