<?xml version="1.0" standalone="no"?><!DOCTYPE svg PUBLIC "-//W3C//DTD SVG 1.1//EN" "http://www.w3.org/Graphics/SVG/1.1/DTD/svg11.dtd"><svg t="1536051576249" class="icon" style="" viewBox="0 0 1024 1024" version="1.1" xmlns="http://www.w3.org/2000/svg" p-id="4841" xmlns:xlink="http://www.w3.org/1999/xlink" width="88" height="88"><defs><style type="text/css"></style></defs><path d="M934.4 659.2c17.066667-46.933333 25.6-96 25.6-147.2 0-76.8-19.2-149.333333-53.333333-213.333333v-2.133334C829.866667 157.866667 682.666667 64 512 64c-83.2 0-162.133333 23.466667-228.266667 64-2.133333 0-4.266667 2.133333-6.4 4.266667C149.333333 209.066667 64 349.866667 64 512c0 247.466667 200.533333 448 448 448 194.133333 0 358.4-123.733333 420.266667-294.4 2.133333-2.133333 2.133333-4.266667 2.133333-6.4z m-36.266667-25.6h-277.333333c10.666667-10.666667 21.333333-21.333333 27.733333-34.133333l230.4-253.866667c23.466667 51.2 36.266667 106.666667 36.266667 166.4 2.133333 42.666667-4.266667 83.2-17.066667 121.6zM390.4 512c0-66.133333 55.466667-121.6 121.6-121.6s121.6 55.466667 121.6 121.6-55.466667 121.6-121.6 121.6-121.6-55.466667-121.6-121.6z m469.333333-206.933333l-183.466666 202.666666v-10.666666V140.8c76.8 34.133333 140.8 91.733333 183.466666 164.266667zM633.6 125.866667v264.533333c-2.133333-2.133333-2.133333-4.266667-6.4-6.4L330.666667 149.333333C384 121.6 445.866667 106.666667 512 106.666667c42.666667 0 83.2 6.4 121.6 19.2zM290.133333 172.8L512 347.733333H140.8c32-70.4 85.333333-132.266667 149.333333-174.933333zM125.866667 390.4H384L142.933333 676.266667C119.466667 627.2 106.666667 571.733333 106.666667 512c0-42.666667 6.4-83.2 19.2-121.6z m38.4 326.4l185.6-219.733333v384c-78.933333-34.133333-142.933333-91.733333-185.6-164.266667z m226.133333 181.333333v-277.333333l6.4 6.4 264.533333 256c2.133333 2.133333 4.266667 2.133333 6.4 4.266667-49.066667 19.2-100.266667 29.866667-155.733333 29.866666-42.666667 0-83.2-6.4-121.6-19.2z m305.066667-25.6c2.133333-6.4 0-14.933333-6.4-21.333333l-183.466667-174.933333H881.066667c-36.266667 85.333333-102.4 153.6-185.6 196.266666z" p-id="4842" fill="#707070"></path></svg>